<svg width="244" height="41" viewBox="0 0 244 41" fill="none" xmlns="http://www.w3.org/2000/svg">
<path fill-rule="evenodd" clip-rule="evenodd" d="M177.347 12.39C177.011 12.719 176.976 12.8434 177.058 13.4243C177.186 14.3419 177.703 15.1869 178.45 15.7C178.954 16.0455 179.278 16.1467 180.031 16.1936C180.85 16.2447 181.079 16.1989 181.726 15.8544C182.748 15.3103 183.267 14.5463 183.347 13.4703C183.4 12.758 183.361 12.5812 183.096 12.3222C182.429 11.67 181.366 12.0766 181.207 13.044C181.106 13.6614 180.712 14.0457 180.179 14.0457C179.769 14.0457 179.467 13.6838 179.246 12.9244C178.963 11.9555 178.053 11.6995 177.347 12.39ZM75.7569 13.5745C75.409 13.8817 74.608 15.5373 72.2668 20.7874C70.5956 24.5352 69.157 27.8332 69.0698 28.116C68.5985 29.6469 70.6257 30.7862 71.7773 29.6376C71.9699 29.4455 72.4525 28.5011 72.8498 27.5388L73.5721 25.7893H76.7118H79.8515L80.5604 27.4929C80.9502 28.4299 81.4419 29.375 81.653 29.5934C82.3218 30.285 83.3586 30.2621 84.0459 29.5405C84.6847 28.8699 84.5702 28.5195 81.2172 20.8777C78.4439 14.5572 78.0229 13.6872 77.6217 13.448C76.9607 13.0536 76.2957 13.0988 75.7569 13.5745ZM87.8791 17.8972C87.0491 18.3376 87.0248 18.5083 87.0248 23.9046C87.0248 29.3879 87.0377 29.4704 87.9671 29.9018C88.6034 30.1971 88.8527 30.1984 89.4738 29.9102C90.35 29.5035 90.4342 29.0529 90.4342 24.7715V21.0049H92.5835H94.7329V24.9267C94.7329 29.2372 94.7786 29.4945 95.6174 29.9189C96.2028 30.2149 96.6382 30.1949 97.2247 29.8451C98.1042 29.3207 98.1423 29.0707 98.1423 23.8223C98.1423 18.6322 98.1085 18.4052 97.2647 17.9176C96.887 17.6994 96.3318 17.671 92.5607 17.6761C89.0679 17.6809 88.2105 17.7213 87.8791 17.8972ZM100.425 18.1632C100.014 18.5648 99.9211 18.7672 99.9211 19.2557C99.9211 19.8874 100.215 20.4667 100.634 20.6626C100.772 20.7268 101.752 20.814 102.812 20.856L104.739 20.9324L104.813 25.0892C104.886 29.2192 104.889 29.2485 105.239 29.6124C105.919 30.3195 107.188 30.2233 107.773 29.4206C108.05 29.04 108.072 28.7468 108.109 24.9728L108.148 20.9324L110.09 20.8599C112.21 20.7808 112.416 20.7062 112.764 19.8903C113.041 19.2423 112.869 18.6147 112.275 18.1042L111.769 17.6703H106.349H100.929L100.425 18.1632ZM115.248 18.1632L114.744 18.6562V23.7523C114.744 29.3456 114.764 29.4813 115.629 29.9189C115.983 30.0978 116.735 30.1387 119.666 30.1382C122.972 30.1378 123.307 30.1146 123.74 29.8558C124.604 29.3405 124.687 28.162 123.911 27.4337L123.471 27.0217L120.738 26.974L118.005 26.9261V26.1403V25.3544H119.847C121.6 25.3544 121.71 25.3368 122.134 24.988C122.725 24.5012 122.848 23.9092 122.501 23.2153C122.142 22.4953 121.6 22.3282 119.591 22.3179L117.99 22.3097L118.035 21.5486L118.08 20.7874L120.872 20.7149L123.663 20.6424L124.096 20.1689C124.714 19.4917 124.689 18.8142 124.024 18.1632L123.52 17.6703H119.636H115.752L115.248 18.1632ZM126.794 18.1796L126.273 18.6889L126.33 20.6806C126.385 22.5517 126.416 22.7308 126.853 23.6407C127.996 26.0181 130.171 27.3985 132.79 27.4085C133.847 27.4126 134.141 27.3537 134.976 26.9714L135.942 26.5295V27.5272C135.942 28.6311 136.102 29.1787 136.568 29.6654C137.236 30.3628 138.567 30.1604 139.098 29.2805C139.323 28.9076 139.351 28.3161 139.35 23.8822C139.35 19.1611 139.335 18.878 139.054 18.4278C138.612 17.7187 137.728 17.475 136.914 17.8376C136.207 18.1528 136.039 18.616 135.947 20.5124C135.869 22.1069 135.825 22.3219 135.457 22.8656C134.496 24.2848 132.236 24.5674 130.841 23.4428C129.976 22.7451 129.762 22.1723 129.688 20.3522C129.617 18.6228 129.439 18.1474 128.743 17.8376C128.013 17.5123 127.359 17.6271 126.794 18.1796ZM142.577 17.8972C141.747 18.3376 141.723 18.5083 141.723 23.9046C141.723 29.4401 141.74 29.544 142.72 29.9445C143.442 30.2394 144.131 30.0924 144.604 29.5428C144.967 29.1213 144.984 29.0216 144.984 27.3005V25.4994H147.356H149.727V27.1739C149.727 29.0506 149.889 29.5535 150.612 29.9189C151.197 30.2149 151.632 30.1949 152.219 29.8451C153.124 29.3057 153.156 29.0767 153.107 23.591L153.062 18.6625L152.509 18.1664C151.612 17.3628 150.485 17.5281 149.949 18.5418C149.791 18.8394 149.727 19.4255 149.727 20.5665V22.1722L147.393 22.1321L145.058 22.0923L144.979 20.3525C144.936 19.3956 144.844 18.4961 144.776 18.3536C144.48 17.7374 143.328 17.4983 142.577 17.8972ZM156.363 18.0932L155.879 18.5161L155.837 23.672C155.789 29.431 155.805 29.537 156.773 29.9328C157.5 30.2297 162.722 30.2236 163.752 29.9247C166.536 29.116 167.38 25.6428 165.289 23.5978C164.326 22.6567 163.576 22.4547 161.04 22.4547H159.066L159.063 20.5337C159.06 18.9328 159.017 18.5612 158.803 18.3034C158.169 17.5381 157.104 17.4461 156.363 18.0932ZM168.316 18.1632L167.812 18.6562V23.8705C167.812 28.8353 167.826 29.1022 168.103 29.4473C168.263 29.6466 168.6 29.8929 168.852 29.9948C169.451 30.2377 170.345 29.9899 170.768 29.4633C171.063 29.0974 171.073 28.9107 171.073 23.8705V18.6562L170.569 18.1632C170.156 17.7592 169.953 17.6703 169.442 17.6703C168.932 17.6703 168.729 17.7592 168.316 18.1632ZM174.447 18.0932L173.963 18.5161L173.917 23.6388C173.866 29.3497 173.882 29.4612 174.857 29.9137C175.994 30.4414 176.331 30.1972 179.544 26.5142L182.264 23.3971L182.338 26.2968C182.386 28.176 182.476 29.3043 182.592 29.5028C183.063 30.306 184.539 30.2606 185.147 29.4242C185.44 29.022 185.451 28.8166 185.451 23.8315V18.6562L184.947 18.1632C184.548 17.7728 184.325 17.6704 183.873 17.671C183.559 17.6714 183.122 17.7857 182.901 17.9247C182.681 18.0639 181.314 19.5455 179.863 21.2171L177.224 24.2567L177.149 21.4346C177.108 19.8826 177.016 18.4961 176.946 18.3536C176.765 17.9882 176.072 17.6703 175.455 17.6703C175.086 17.6703 174.789 17.7951 174.447 18.0932ZM77.556 20.4612L78.3735 22.3822L76.7502 22.4234C75.8574 22.446 75.101 22.4392 75.0694 22.4083C74.9941 22.3347 76.5495 18.5456 76.6564 18.5425C76.7015 18.5412 77.1063 19.4047 77.556 20.4612ZM162.712 25.4653C162.909 25.5939 163.216 26.1429 163.216 26.3664C163.216 26.4549 163.053 26.6875 162.853 26.8832C162.508 27.22 162.397 27.2392 160.777 27.2392H159.066V26.2968V25.3544L160.808 25.3566C161.766 25.3579 162.623 25.4067 162.712 25.4653ZM200.624 12.3923C199.664 12.8008 199.679 12.7056 199.675 18.6318C199.673 21.5844 199.611 24.2545 199.537 24.5657C199.338 25.4069 198.981 25.6722 197.869 25.8072C195.936 26.0416 195.824 26.2363 195.824 29.3665C195.824 31.9537 195.929 32.4123 196.59 32.7314C197.234 33.042 197.58 33.075 198.074 32.8729C198.89 32.5393 199.004 32.2925 199.085 30.6841L199.16 29.2195L204.149 29.1813L209.137 29.1432L209.188 30.5925C209.238 31.9997 209.253 32.0551 209.712 32.5032C210.106 32.889 210.297 32.9648 210.87 32.9648C211.443 32.9648 211.634 32.8891 212.028 32.5029L212.501 32.0411V29.4436V26.8463L212.067 26.4036C211.828 26.1602 211.412 25.9203 211.141 25.8705L210.648 25.7801V19.6273C210.648 12.787 210.647 12.7858 209.679 12.39C208.967 12.0989 201.309 12.1008 200.624 12.3923ZM207.387 20.6655V25.8124H205.03H202.674L202.803 25.2687C202.874 24.9697 202.934 22.6535 202.936 20.1218L202.94 15.5186H205.163H207.387V20.6655ZM218.541 16.9025C216.712 17.3842 215.255 18.5644 214.4 20.2568C213.922 21.2024 213.842 21.5091 213.789 22.6138C213.686 24.7072 214.296 26.2019 215.822 27.5981C219.557 31.0152 225.716 28.8972 226.502 23.9251C227.195 19.544 222.899 15.7546 218.541 16.9025ZM230.991 16.9599C230.725 17.123 230.41 17.4689 230.291 17.7286C230.173 17.9882 229.697 20.3177 229.233 22.905L228.391 27.6094L228.672 28.1244C228.839 28.4292 229.185 28.7499 229.519 28.9095C230.022 29.1497 230.143 29.1577 230.615 28.9819C231.482 28.6594 231.67 28.2617 232.1 25.8454C232.316 24.6338 232.52 23.6695 232.554 23.7026C232.587 23.7356 233.106 24.7946 233.706 26.0561C234.885 28.5333 235.371 29.147 236.153 29.147C237.134 29.147 237.445 28.8216 238.458 26.7374C238.979 25.6642 239.506 24.5505 239.63 24.2622C239.753 23.974 239.882 23.7658 239.916 23.7996C239.951 23.8335 240.155 24.8058 240.371 25.9604C240.586 27.1149 240.862 28.2118 240.984 28.398C241.328 28.9214 242.136 29.197 242.748 28.9994C243.362 28.8014 244 28.0908 244 27.6057C244 26.9253 242.362 18.2001 242.145 17.7286C241.896 17.1863 241.139 16.6798 240.576 16.679C240.363 16.6788 239.968 16.8252 239.696 17.0047C239.277 17.2816 238.988 17.8053 237.784 20.4748C237.004 22.2039 236.33 23.6532 236.285 23.6953C236.24 23.7375 235.551 22.3451 234.753 20.601C233.954 18.857 233.147 17.2881 232.958 17.1149C232.464 16.6603 231.591 16.5916 230.991 16.9599ZM221.362 20.2091C221.625 20.317 222.055 20.6218 222.318 20.8866C224.156 22.7322 223.038 25.7448 220.447 25.9281C219.285 26.0104 218.649 25.7815 217.934 25.0228C216.793 23.8118 216.743 22.2589 217.807 21.0738C218.668 20.1143 220.216 19.7379 221.362 20.2091Z" fill="white"/>
<path fill-rule="evenodd" clip-rule="evenodd" d="M13.8812 8.05781C6.28506 12.4868 0.0398891 16.1938 0.00296726 16.2955C-0.0843133 16.5367 1.78106 19.5846 2.01603 19.5846C2.11102 19.5846 7.99258 16.1997 15.086 12.0625C25.4599 6.01218 28.0241 4.56182 28.1919 4.6493C28.3066 4.70921 34.1256 8.0962 41.1228 12.1761C48.1201 16.256 53.9257 19.5789 54.0241 19.5605C54.2591 19.5163 56.04 16.6279 55.9993 16.3568C55.9575 16.0784 28.4069 -0.00740132 27.9844 2.55508e-06C27.8123 0.00296411 22.0165 3.31432 13.8812 8.05781ZM24.7362 14.4816C24.6346 14.5806 24.596 15.3979 24.596 17.4432C24.596 18.9969 24.5828 20.2786 24.5668 20.2916C24.5508 20.3045 23.1968 20.343 21.5581 20.3771L18.5786 20.4389V23.6852V26.9315L21.5853 26.962L24.592 26.9924L24.6232 29.9235L24.6544 32.8546H27.9844H31.3144L31.3728 29.95L31.4312 27.0455L34.3428 27.0149C36.2515 26.995 37.308 26.9411 37.4099 26.8586C37.5321 26.7597 37.5654 26.0919 37.5654 23.7375C37.5654 22.0902 37.5335 20.6613 37.4944 20.5622C37.4324 20.4045 37.0614 20.382 34.5384 20.382C32.4502 20.382 31.6145 20.3443 31.513 20.2453C31.4114 20.1463 31.3728 19.3316 31.3728 17.2959C31.3728 14.8362 31.3496 14.4746 31.1879 14.4141C31.0863 14.3761 29.6246 14.345 27.9397 14.345C25.713 14.345 24.8381 14.3823 24.7362 14.4816ZM10.9864 17.4557C9.91743 18.0951 9.1784 18.6133 9.08774 18.7873C8.97043 19.0125 8.94554 21.2275 8.96856 29.3805L8.99765 39.689L9.27234 40.1197C9.42342 40.3566 9.74988 40.6513 9.99793 40.7746C10.4405 40.9948 10.7718 40.9989 27.9913 40.9989C47.5225 40.9989 45.9997 41.0622 46.6563 40.223L46.9711 39.8207L47.0042 29.4464C47.0223 23.7405 47.009 18.9596 46.9744 18.8223C46.9303 18.6472 46.3565 18.2471 45.0543 17.4839C44.0328 16.8852 43.1393 16.3953 43.0686 16.3953C42.9761 16.3953 42.9401 19.2552 42.9401 26.5973C42.9401 33.412 42.8999 36.8726 42.8191 37.0197C42.7005 37.2357 42.4127 37.24 28.053 37.24C15.9224 37.24 13.3854 37.2137 13.2773 37.0867C13.1838 36.9769 13.1383 34.0294 13.1169 26.6944C13.0907 17.694 13.066 16.4526 12.9118 16.4321C12.8154 16.4193 11.9489 16.8799 10.9864 17.4557Z" fill="#71BF44"/>
</svg>
