<svg width="50" height="50" viewBox="0 0 20 24" fill="none" xmlns="http://www.w3.org/2000/svg">
<path d="M18.3058 16.8953C17.8601 16.4488 17.2668 16.2008 16.6329 16.1943V8.67302C16.6329 8.36327 16.4718 8.09097 16.2293 7.93398V7.65662C16.2293 6.44711 15.2646 5.45945 14.0648 5.422V4.22912H14.3712C14.8655 4.22912 15.2676 3.82698 15.2676 3.33273V0.896392C15.2676 0.402095 14.8655 0 14.3712 0H1.98197C1.48767 0 1.08558 0.402095 1.08558 0.896392V3.33277C1.08558 3.82702 1.48767 4.22916 1.98197 4.22916H2.28708V5.4481C1.22039 5.61728 0.402282 6.54311 0.402282 7.65667V7.93445C0.160594 8.09149 0 8.36359 0 8.67306V19.9636C0 20.2726 0.160594 20.5443 0.402282 20.7011V20.98C0.402282 22.2132 1.4055 23.2164 2.63865 23.2164H11.824C11.8494 23.2443 11.8752 23.2717 11.9021 23.2986C12.3544 23.7509 12.9579 24 13.6014 24C14.2448 24 14.8482 23.7509 15.3006 23.2986L18.3056 20.2921C19.2421 19.3556 19.2421 17.8317 18.3058 16.8953ZM1.98197 3.52599C1.87721 3.52599 1.78871 3.43749 1.78871 3.33273V0.896392C1.78871 0.791627 1.87721 0.703126 1.98197 0.703126H14.3712C14.476 0.703126 14.5645 0.791627 14.5645 0.896392V3.33277C14.5645 3.43754 14.476 3.52604 14.3712 3.52604H1.98197V3.52599ZM1.10541 7.65662C1.10541 6.81114 1.79321 6.12334 2.63865 6.12334H7.4433C7.6375 6.12334 7.79486 5.96593 7.79486 5.77178C7.79486 5.57762 7.6375 5.42021 7.4433 5.42021H2.99021V4.22912H13.3617V5.42021H8.98849C8.79428 5.42021 8.63692 5.57762 8.63692 5.77178C8.63692 5.96593 8.79428 6.12334 8.98849 6.12334H13.9943C14.839 6.12334 15.5262 6.81119 15.5262 7.65662V7.79261H1.10541V7.65662ZM11.9021 19.9002C11.8261 19.9762 11.7569 20.0564 11.6932 20.1396H9.07103C8.87683 20.1396 8.71947 20.297 8.71947 20.4911C8.71947 20.6853 8.87683 20.8427 9.07103 20.8427H11.3215C11.1421 21.3861 11.161 21.981 11.3791 22.5133H2.63865C1.79321 22.5133 1.10541 21.8255 1.10541 20.98V20.8427H7.4433C7.6375 20.8427 7.79486 20.6853 7.79486 20.4912C7.79486 20.297 7.6375 20.1396 7.4433 20.1396H0.879049C0.86658 20.1396 0.854205 20.1378 0.84197 20.1355C0.762751 20.1184 0.703126 20.048 0.703126 19.9637V8.67302C0.703126 8.57692 0.783705 8.49574 0.879049 8.49574H15.7526C15.8487 8.49574 15.9298 8.57692 15.9298 8.67302V16.2899C15.5472 16.4012 15.1971 16.6065 14.9086 16.8951L11.9022 19.9002C11.9021 19.9002 11.9021 19.9002 11.9021 19.9002ZM14.8033 22.8015C14.4838 23.121 14.057 23.2969 13.6013 23.2969C13.1457 23.2969 12.7188 23.121 12.3993 22.8015C11.7365 22.1386 11.7365 21.0602 12.3993 20.3974L12.3992 20.3974L13.6541 19.1431L16.057 21.5471L14.8033 22.8015ZM17.8083 19.795L16.5541 21.0498L14.1514 18.646L15.4057 17.3922C15.7252 17.0727 16.152 16.8967 16.6076 16.8967C17.063 16.8967 17.4894 17.0726 17.8084 17.3922C18.4708 18.0547 18.4708 19.1325 17.8083 19.795Z" fill="#71BF44"/>
</svg>
