<svg width="22" height="21" viewBox="0 0 22 21" fill="none" xmlns="http://www.w3.org/2000/svg">
<path d="M21.8476 5.38433C21.7242 5.23957 21.5442 5.15647 21.3554 5.15647H5.20581L3.93046 0.475476C3.85368 0.194763 3.59939 0.000244141 3.30858 0.000244141H0.644529C0.288276 0.000244141 0 0.28852 0 0.644772C0 1.00102 0.288276 1.2893 0.644529 1.2893H2.81637C7.70689 19.2068 6.02015 13.027 6.38504 14.3639C5.70863 14.6677 5.24217 15.3309 5.24217 16.1135C5.24217 17.0048 5.85137 17.7496 6.67315 17.9724C6.58339 18.1952 6.53122 18.437 6.53122 18.6916C6.53122 19.7578 7.39859 20.6251 8.46481 20.6251C9.53103 20.6251 10.3984 19.7578 10.3984 18.6916C10.3984 18.4645 10.3519 18.2496 10.2797 18.047H15.6733C15.6011 18.2496 15.5546 18.4645 15.5546 18.6916C15.5546 19.7578 16.422 20.6251 17.4882 20.6251C18.5544 20.6251 19.4218 19.7578 19.4218 18.6916C19.4218 17.6253 18.5544 16.758 17.4882 16.758H7.17575C6.82074 16.758 6.53122 16.4691 6.53122 16.1135C6.53122 15.5131 7.30496 15.3865 7.17575 15.4563C7.30466 15.4563 7.74044 15.4025 20.1293 14.1767C20.4201 14.1478 20.6542 13.9288 20.702 13.6411L21.9911 5.90674C22.0226 5.71979 21.9697 5.52909 21.8476 5.38433ZM9.10934 18.6916C9.10934 19.0472 8.81981 19.3361 8.46481 19.3361C8.1098 19.3361 7.82028 19.0472 7.82028 18.6916C7.82028 18.336 8.1098 18.047 8.46481 18.047C8.81981 18.047 9.10934 18.336 9.10934 18.6916ZM17.4882 19.3361C17.1332 19.3361 16.8437 19.0472 16.8437 18.6916C16.8437 18.336 17.1332 18.047 17.4882 18.047C17.8432 18.047 18.1327 18.336 18.1327 18.6916C18.1327 19.0472 17.8432 19.3361 17.4882 19.3361ZM10.3984 10.9572C10.3984 11.3135 10.1101 11.6018 9.75386 11.6018C9.39761 11.6018 9.10934 11.3135 9.10934 10.9572V8.37911C9.10934 8.02286 9.39761 7.73458 9.75386 7.73458C10.1101 7.73458 10.3984 8.02286 10.3984 8.37911V10.9572ZM14.2656 10.9572C14.2656 11.3135 13.9773 11.6018 13.621 11.6018C13.2648 11.6018 12.9765 11.3135 12.9765 10.9572V8.37911C12.9765 8.02286 13.2648 7.73458 13.621 7.73458C13.9773 7.73458 14.2656 8.02286 14.2656 8.37911V10.9572ZM18.1327 10.9572C18.1327 11.3135 17.8445 11.6018 17.4882 11.6018C17.132 11.6018 16.8437 11.3135 16.8437 10.9572V8.37911C16.8437 8.02286 17.132 7.73458 17.4882 7.73458C17.8445 7.73458 18.1327 8.02286 18.1327 8.37911V10.9572Z" fill="#484A4C"/>
<path d="M19.4218 1.93356C19.4218 1.5773 19.1336 1.28903 18.7773 1.28903H17.7551L17.944 1.10018C18.1957 0.848424 17.4691 1.20823 17.2174 0.956474C16.9656 0.70472 17.2299 1.03755 16.9781 1.2893L16.1992 1.02215L15.7826 1.10018C15.5309 0.848424 15.5561 1.03755 15.3043 1.2893C15.0526 1.54105 14.2026 0.848424 14.4544 1.10018L14.6432 1.28903H13.6211C13.2648 1.28903 12.9765 1.5773 12.9765 1.93356V3.86715H19.4218V1.93356Z" fill="#484A4C"/>
<path d="M11.6875 2.57809H7.17578C6.81953 2.57809 6.53125 2.86637 6.53125 3.22262V3.86715H11.6875V2.57809Z" fill="#484A4C"/>
</svg>
