<svg width="20" height="20" viewBox="0 0 19 14" fill="none" xmlns="http://www.w3.org/2000/svg">
<path d="M1.62435 0H17.3756C18.2161 0.00115366 18.9173 0.642397 18.9933 1.47957L10.5533 8.63765C9.94839 9.15353 9.05834 9.15391 8.45305 8.63842L0.0065378 1.4863C0.0788338 0.646434 0.78122 0.00115366 1.62435 0ZM1.62435 13.937C1.26883 13.9374 0.92312 13.8205 0.640858 13.6044L5.35144 8.78609C5.43873 8.69822 5.47219 8.57035 5.43912 8.45114C5.40605 8.33174 5.31164 8.23944 5.19166 8.20906C5.07149 8.17868 4.94439 8.21502 4.85864 8.30443L0.191892 13.0777C0.065759 12.8425 -0.000191857 12.5797 4.19226e-07 12.3126V2.38385L8.00774 9.16449C8.86991 9.89841 10.1374 9.89802 10.999 9.16314L19 2.37731V12.3126C19.0004 12.5807 18.9339 12.8445 18.8068 13.0802L14.1121 8.30366C13.9785 8.16907 13.7614 8.16773 13.6261 8.30059C13.4909 8.43364 13.4884 8.65072 13.6207 8.78666L18.3572 13.6059C18.0751 13.821 17.7304 13.9374 17.3756 13.937H1.62435Z" fill="#71BF44"/>
</svg>
