<svg width="50" height="50" viewBox="0 0 22 22" fill="none" xmlns="http://www.w3.org/2000/svg">
<path d="M10.4411 0.115958C10.3999 0.0793557 10.3502 0.0501792 10.295 0.0302338C10.2397 0.0102884 10.1802 -1.68814e-06 10.12 2.07726e-10H0.439999C0.379804 1.06245e-07 0.320249 0.0102931 0.265018 0.0302421C0.209788 0.0501912 0.160057 0.0793719 0.118902 0.115979C0.0777464 0.152586 0.0460427 0.195841 0.0257517 0.243068C0.00546069 0.290295 -0.00298613 0.34049 0.000934094 0.390546L1.32 17.2452V20.1667C1.32065 20.6527 1.55265 21.1187 1.96509 21.4624C2.37753 21.8061 2.93672 21.9995 3.52 22H19.8C20.3833 21.9995 20.9425 21.8061 21.3549 21.4624C21.7673 21.1187 21.9993 20.6527 22 20.1667V15.0333C21.9995 14.6768 21.8744 14.328 21.64 14.0297C21.4056 13.7314 21.072 13.4964 20.68 13.3535V12.1C20.68 10.8682 20.0967 9.78303 18.993 8.96188C18.4976 8.59008 17.9271 8.29424 17.308 8.08803C17.2039 8.05355 17.0876 8.05478 16.9846 8.09146C16.8815 8.12815 16.8001 8.19729 16.758 8.28383C16.7363 8.31797 16.5306 8.62171 15.8971 8.9248C15.2585 9.23028 14.0529 9.59443 11.9355 9.59443C11.1258 9.59443 10.4215 9.66303 9.82267 9.80022L10.5591 0.390638C10.563 0.340562 10.5546 0.290347 10.5343 0.243099C10.514 0.195852 10.4823 0.152578 10.4411 0.115958ZM9.65035 0.733333L9.59299 1.46667H0.967009L0.909644 0.733333H9.65035ZM7.04 19.8V15.4H21.12V19.8H7.04ZM4.4 19.8V19.4333C4.40013 19.3361 4.44653 19.2429 4.52902 19.1742C4.6115 19.1054 4.72334 19.0668 4.84 19.0667H5.72C5.83665 19.0668 5.94849 19.1054 6.03098 19.1742C6.11347 19.2429 6.15987 19.3361 6.16 19.4333V19.8H4.4ZM6.16 18.3964C6.01872 18.3546 5.86991 18.3333 5.72 18.3333H4.84C4.49003 18.3337 4.15452 18.4497 3.90705 18.6559C3.65959 18.8621 3.52039 19.1417 3.52 19.4333V19.8H2.2V17.6H6.16V18.3964ZM2.27568 20.5333H6.20427C6.26952 20.7993 6.40512 21.0499 6.60121 21.2667H3.52C3.24714 21.2664 2.98107 21.1957 2.75829 21.0644C2.53551 20.9331 2.36693 20.7476 2.27568 20.5333ZM19.8 21.2667H8.36C8.08714 21.2664 7.82107 21.1957 7.59829 21.0644C7.37551 20.9331 7.20693 20.7476 7.11568 20.5333H21.0443C20.9531 20.7476 20.7845 20.9331 20.5617 21.0644C20.3389 21.1957 20.0729 21.2664 19.8 21.2667ZM21.0443 14.6667H7.11568C7.20693 14.4524 7.37551 14.2669 7.59829 14.1356C7.82107 14.0043 8.08714 13.9336 8.36 13.9333H19.8C20.0729 13.9336 20.3389 14.0043 20.5617 14.1356C20.7845 14.2669 20.9531 14.4524 21.0443 14.6667ZM8.36 13.2V12.4667H19.8V13.2H8.36ZM16.4376 9.51042C16.7703 9.34723 17.0678 9.13857 17.3176 8.89318C17.7205 9.0621 18.0946 9.27502 18.4301 9.52632C19.2283 10.1281 19.6807 10.8692 19.7792 11.7334H8.38409C8.43513 11.5085 8.55777 11.2991 8.73917 11.1272C9.28367 10.6042 10.3892 10.3278 11.9355 10.3278C13.8545 10.3278 15.369 10.0528 16.4376 9.51042ZM8.05557 10.6648C7.66023 11.0498 7.45582 11.5459 7.48396 12.0521C7.48139 12.068 7.48006 12.084 7.48 12.1V13.3535C7.08797 13.4964 6.75438 13.7314 6.51996 14.0297C6.28555 14.328 6.16047 14.6768 6.16 15.0333V16.8667H2.1725L1.02437 2.2H9.53562L8.9177 10.0954C8.58995 10.2383 8.29753 10.4314 8.05579 10.6647L8.05557 10.6648Z" fill="#71BF44"/>
</svg>
