<svg width="50" height="50" viewBox="0 0 24 24" fill="none" xmlns="http://www.w3.org/2000/svg">
<path d="M5.43441 12.5156C5.31094 12.288 5.02646 12.2037 4.79884 12.3271L4.78998 12.332C4.56245 12.4554 4.47807 12.74 4.60154 12.9675C4.68648 13.124 4.84759 13.2128 5.01394 13.2128C5.08946 13.2128 5.16605 13.1945 5.23712 13.156L5.24598 13.1511C5.47351 13.0277 5.55788 12.7431 5.43441 12.5156Z" fill="white"/>
<path d="M22.4061 3.99815H19.0157C18.1369 3.99815 17.422 4.71313 17.4219 5.5919C17.4219 6.33594 17.9345 6.96256 18.625 7.13722L16.7898 8.97246C15.4639 8.13499 13.8893 7.75067 12.3126 7.88693C10.5811 8.03642 8.96024 8.80816 7.74867 10.06C6.40538 11.448 5.68186 13.2692 5.7114 15.1882C5.74093 17.1066 6.51966 18.9053 7.90406 20.2527C8.073 20.4172 8.25018 20.5727 8.43374 20.7197C8.04576 20.8409 7.63331 20.9063 7.20591 20.9063C4.9314 20.9063 3.08092 19.0558 3.08092 16.7813C3.08092 15.8279 3.39677 14.9327 3.99428 14.1926C4.15689 13.9912 4.12543 13.696 3.92401 13.5334C3.72255 13.3707 3.42742 13.4023 3.26481 13.6036C2.54168 14.4994 2.14343 15.6279 2.14343 16.7813C2.14343 19.5727 4.41446 21.8438 7.20591 21.8438C9.99735 21.8438 12.2684 19.5727 12.2684 16.7813C12.2684 14.9757 11.3045 13.3183 9.77108 12.416C9.84739 12.3255 9.92713 12.2373 10.0118 12.1526C10.2331 11.9313 10.4758 11.7392 10.7343 11.5762C12.4706 12.7485 13.4999 14.6757 13.4999 16.7813C13.4999 18.6313 12.6853 20.3056 11.3961 21.4594C11.3472 21.5033 11.302 21.5467 11.2601 21.5895C10.1309 22.5399 8.70984 23.0609 7.2255 23.0625C7.22297 23.0625 7.22095 23.0625 7.21842 23.0625C3.75311 23.0625 0.9949 20.3509 0.938275 16.8866C0.887932 13.8045 3.13759 11.0965 6.17124 10.5875C6.39703 10.5496 6.56241 10.3541 6.56241 10.1252V4.21884C6.56241 3.95995 6.35255 3.75009 6.09366 3.75009H4.95587C4.6974 3.75009 4.48712 3.53981 4.48712 3.28134C4.48712 3.02288 4.6974 2.8126 4.95587 2.8126H6.09371C6.3526 2.8126 6.56246 2.60274 6.56246 2.34385V1.59385C6.56246 1.23878 6.85106 0.944449 7.20586 0.937699C7.37512 0.934746 7.53951 1.00112 7.66612 1.12534C7.79887 1.25556 7.875 1.43556 7.875 1.61916V2.3438C7.875 2.60269 8.08486 2.81255 8.34374 2.81255H9.45594C9.71441 2.81255 9.92469 3.02283 9.92469 3.2813C9.92469 3.53976 9.71441 3.75005 9.45594 3.75005H8.3437C8.08481 3.75005 7.87495 3.9599 7.87495 4.21879V7.33597C7.87495 7.35233 7.87514 7.36869 7.87542 7.38505C7.87973 7.64389 8.09329 7.84929 8.3519 7.84592C8.61074 7.84161 8.81709 7.62828 8.81277 7.36944C8.81259 7.35828 8.81245 7.34712 8.81245 7.33597V4.68754H9.4559C10.2313 4.68754 10.8621 4.0567 10.8621 3.2813C10.8621 2.50589 10.2313 1.87505 9.4559 1.87505H8.81245V1.61916C8.81245 1.18548 8.63395 0.76159 8.3227 0.456154C8.01492 0.154187 7.61156 -0.00851566 7.18805 0.000343676C6.32621 0.0167499 5.62496 0.731543 5.62496 1.59385V1.8751H4.95591C4.18051 1.8751 3.54967 2.50594 3.54967 3.28134C3.54967 4.05675 4.18051 4.68759 4.95591 4.68759H5.62496V9.7398C4.09525 10.0852 2.71014 10.927 1.69155 12.1381C0.572886 13.4681 -0.0274861 15.1599 0.000966862 16.9018C0.0322324 18.8158 0.796807 20.6039 2.15383 21.9367C3.5088 23.2675 5.30701 24 7.21861 24C7.22119 24 7.22405 24 7.22658 24C8.97215 23.9982 10.6415 23.3709 11.9533 22.2298C12.279 22.2744 12.6052 22.2967 12.9301 22.2967C14.8305 22.2967 16.679 21.5459 18.042 20.1829C18.9425 19.2824 19.59 18.1593 19.9146 16.9349C19.9809 16.6847 19.8319 16.428 19.5816 16.3617C19.3313 16.2953 19.0747 16.4444 19.0084 16.6947C18.7262 17.7593 18.1628 18.7363 17.3791 19.52C16.1623 20.7369 14.5008 21.3924 12.8018 21.3575C13.129 20.9596 13.4105 20.5318 13.6428 20.0807C14.7234 19.9267 15.7326 19.4248 16.5084 18.6492C17.4646 17.693 17.9911 16.4217 17.9911 15.0694C17.9911 13.7172 17.4646 12.4459 16.5084 11.4897C15.5522 10.5335 14.2809 10.0069 12.9287 10.0069C11.5764 10.0069 10.3051 10.5335 9.34893 11.4897C8.39278 12.4459 7.86618 13.7172 7.86618 15.0694C7.86618 16.4217 8.39278 17.693 9.34893 18.6491C9.65488 18.9551 9.99482 19.2169 10.3626 19.4334C10.0882 19.7596 9.76433 20.0427 9.40255 20.2712C9.10307 20.0667 8.81962 19.8356 8.55801 19.5809C6.08232 17.1713 6.02147 13.1927 8.42235 10.712C10.5661 8.49706 14.0717 8.17296 16.5767 9.95814C16.7632 10.091 17.0184 10.0698 17.1803 9.90789L20.0398 7.04839C20.1738 6.91433 20.2139 6.71272 20.1413 6.53755C20.0688 6.36238 19.8979 6.24819 19.7083 6.24819H19.0157C18.6539 6.24819 18.3595 5.95382 18.3595 5.59194C18.3595 5.23007 18.6539 4.9357 19.0157 4.9357H22.4061C22.768 4.9357 23.0624 5.23012 23.0624 5.59194V8.98235C23.0624 9.34422 22.768 9.6386 22.4061 9.63864C22.2309 9.63864 22.0661 9.57035 21.9421 9.44641C21.8181 9.32247 21.7498 9.15766 21.7498 8.9824V8.3261C21.7498 8.13654 21.6356 7.96559 21.4605 7.89303C21.2854 7.82051 21.0838 7.86064 20.9496 7.9946L18.1083 10.836C17.9464 10.9979 17.9251 11.2531 18.058 11.4395C18.5336 12.1069 18.869 12.8508 19.0549 13.6505C19.1135 13.9026 19.3654 14.0596 19.6176 14.0009C19.8697 13.9423 20.0266 13.6904 19.968 13.4382C19.7844 12.6487 19.4741 11.9063 19.0438 11.2263L20.8679 9.40221C20.9398 9.66719 21.0799 9.91 21.2792 10.1094C21.5802 10.4104 21.9804 10.5761 22.4061 10.5761C23.2849 10.5761 23.9998 9.86111 23.9999 8.9824V5.59194C23.9999 4.71313 23.2849 3.99815 22.4061 3.99815ZM12.9286 10.9444C14.0304 10.9444 15.0663 11.3735 15.8454 12.1526C16.6245 12.9317 17.0536 13.9676 17.0536 15.0694C17.0536 16.1713 16.6245 17.2071 15.8454 17.9862C15.3524 18.4792 14.7436 18.8359 14.082 19.0289C14.3159 18.3124 14.4375 17.5559 14.4375 16.7813C14.4375 15.5303 14.1123 14.2977 13.4971 13.2165C13.0398 12.4128 12.4286 11.7026 11.7062 11.1281C12.0971 11.0074 12.508 10.9444 12.9286 10.9444ZM10.0118 17.9862C9.23268 17.2071 8.80363 16.1713 8.80363 15.0695C8.80363 14.4082 8.95926 13.7712 9.25124 13.1987C10.5265 13.9279 11.3309 15.2927 11.3309 16.7813C11.3309 17.4543 11.1688 18.0901 10.8818 18.6518C10.5652 18.4707 10.2735 18.248 10.0118 17.9862Z" fill="white"/>
<path d="M19.6945 14.7199C19.4343 14.7142 19.2222 14.9227 19.2178 15.1816L19.2178 15.1836C19.2133 15.4425 19.4197 15.6538 19.6785 15.6582C19.6813 15.6583 19.6839 15.6583 19.6866 15.6583C19.9417 15.6583 20.1509 15.4516 20.1552 15.1954C20.1596 14.9367 19.9533 14.7243 19.6945 14.7199Z" fill="white"/>
</svg>
