<svg width="50" height="50" viewBox="0 0 19 24" fill="none" xmlns="http://www.w3.org/2000/svg">
<path d="M3.78291 17.4293C3.95292 17.2677 4.13325 17.0951 4.34137 16.8949C5.17144 17.124 6.05494 16.9117 6.69337 16.317C6.88031 16.1432 7.06706 15.9678 7.25283 15.7923C7.39397 15.6591 7.40034 15.4365 7.26703 15.2955C7.13377 15.1543 6.9113 15.1479 6.77016 15.2812C6.5857 15.4554 6.40031 15.6296 6.21441 15.8024C5.7165 16.2662 5.01084 16.4056 4.37241 16.1665C4.24556 16.1189 4.10264 16.1486 4.00509 16.2427C3.73191 16.5061 3.50733 16.7213 3.29827 16.92C2.90902 17.2909 2.28745 17.2897 1.91245 16.9174C1.90523 16.9099 1.89881 16.9034 1.89239 16.8973C1.5233 16.5219 1.52302 15.9028 1.89258 15.5149C2.09114 15.306 2.30634 15.0814 2.5702 14.8078C2.66423 14.7103 2.69386 14.5673 2.64633 14.4405C2.40722 13.8022 2.54662 13.0964 3.01022 12.5987C4.35516 11.1529 5.76816 9.73847 7.21341 8.38847C8.23092 9.50587 9.30741 10.5824 10.4248 11.5998C9.56475 12.5208 8.67581 13.4314 7.77787 14.3102C7.63917 14.446 7.63673 14.6685 7.77253 14.8073C7.84139 14.8777 7.93256 14.913 8.02373 14.913C8.11242 14.913 8.2012 14.8796 8.26959 14.8126C9.17902 13.9226 10.0792 13.0002 10.9501 12.0673C11.1471 12.2193 11.3835 12.2967 11.6205 12.2967C11.8581 12.2967 12.0958 12.2198 12.2942 12.0646C13.2058 11.3517 14.0295 10.528 14.7424 9.61645C15.0476 9.22617 15.0502 8.68336 14.7597 8.29017C15.8698 7.2353 16.9569 6.14438 17.9939 5.04267C18.5263 4.47661 18.8156 3.73753 18.8089 2.96147C18.8021 2.18203 18.4969 1.45008 17.9495 0.900375C17.9477 0.898594 17.946 0.89686 17.9442 0.895125C17.9353 0.886547 17.9264 0.877688 17.9179 0.868782C17.916 0.866907 17.9142 0.865032 17.9123 0.863157C16.9851 -0.0599997 15.5804 -0.264187 14.4173 0.354938C14.2459 0.446157 14.181 0.659016 14.2722 0.830391C14.3634 1.00172 14.5763 1.06673 14.7476 0.975516C15.6355 0.502875 16.7066 0.656953 17.414 1.35895C17.427 1.37241 17.4404 1.38581 17.4538 1.3988C18.3185 2.26969 18.3311 3.65798 17.4819 4.56094C16.4593 5.64731 15.3875 6.72328 14.2928 7.764C13.2654 6.63459 12.1778 5.547 11.0485 4.51973C11.9201 3.60253 12.8255 2.6933 13.7447 1.81336C13.8849 1.67911 13.8898 1.45659 13.7555 1.31639C13.6213 1.17614 13.3988 1.17127 13.2585 1.30556C12.3256 2.19872 11.4066 3.12183 10.5224 4.05295C10.1292 3.76275 9.58659 3.76533 9.19641 4.07048C8.28487 4.78336 7.46119 5.607 6.74826 6.51862C6.43819 6.91514 6.44119 7.46873 6.74578 7.86328C5.28427 9.22795 3.85542 10.658 2.49567 12.1197C1.90111 12.758 1.68877 13.6416 1.91798 14.4715C1.71741 14.68 1.54481 14.8604 1.38333 15.0302C0.752906 15.6919 0.758719 16.7532 1.39659 17.3957C1.39988 17.399 1.40325 17.4023 1.40662 17.4054L1.41577 17.4149C1.74028 17.737 2.17078 17.8983 2.60278 17.8983C3.02798 17.8983 3.45455 17.7421 3.78291 17.4293ZM7.3193 7.45542C7.19273 7.31269 7.18547 7.10086 7.30209 6.95175C7.97986 6.08512 8.76291 5.30203 9.62953 4.62431C9.70031 4.56895 9.7853 4.54148 9.87028 4.54148C9.96426 4.54148 10.0583 4.57505 10.1332 4.64152C11.5532 5.90086 12.9119 7.25953 14.1714 8.67975C14.298 8.82248 14.3053 9.03431 14.1887 9.18342C13.5109 10.05 12.7279 10.8331 11.8612 11.5109C11.7121 11.6274 11.5004 11.6203 11.3576 11.4937C9.93745 10.2342 8.57873 8.87555 7.3193 7.45542Z" fill="#71BF44"/>
<path d="M0 21.9053C0 21.9584 0.00093759 22.0112 0.00276571 22.0638C0.0465938 23.3349 1.05802 24 2.03447 24C3.01092 24 4.02234 23.3349 4.06622 22.0637C4.06805 22.0111 4.06894 21.9583 4.06894 21.9053C4.06894 20.4834 3.38681 19.1271 2.24423 18.2772C2.11973 18.1845 1.94916 18.1845 1.82466 18.2772C0.682125 19.127 0 20.4833 0 21.9053ZM0.703031 21.9053C0.703031 20.7765 1.185 19.735 2.03452 19.0086C2.88403 19.735 3.366 20.7765 3.366 21.9053C3.366 21.9502 3.3652 21.9949 3.3637 22.0395C3.33375 22.9081 2.67455 23.297 2.03456 23.297C1.39458 23.297 0.735375 22.9081 0.705422 22.0394C0.703781 21.9948 0.703031 21.9502 0.703031 21.9053Z" fill="#71BF44"/>
</svg>
