<svg width="50" height="50" viewBox="0 0 23 24" fill="none" xmlns="http://www.w3.org/2000/svg">
<path d="M5.15601 5.90596C4.89726 5.90596 4.68726 6.11596 4.68726 6.37471C4.68726 6.63346 4.89726 6.84346 5.15601 6.84346C5.41476 6.84346 5.62476 6.63346 5.62476 6.37471C5.62476 6.11596 5.41476 5.90596 5.15601 5.90596Z" fill="#71BF44"/>
<path d="M9.37452 14.6711H7.96837V13.265C7.96837 13.0061 7.75846 12.7962 7.49962 12.7962C7.24077 12.7962 7.03091 13.0061 7.03091 13.265V14.6711H5.62476C5.36592 14.6711 5.15601 14.881 5.15601 15.1398C5.15601 15.3986 5.36592 15.6086 5.62476 15.6086H7.03091V17.0147C7.03091 17.2736 7.24082 17.4835 7.49962 17.4835C7.75841 17.4835 7.96837 17.2736 7.96837 17.0147V15.6086H9.37452C9.63336 15.6086 9.84327 15.3987 9.84327 15.1398C9.84327 14.881 9.63341 14.6711 9.37452 14.6711Z" fill="#71BF44"/>
<path d="M22.0255 15.093C20.9893 13.2983 18.6982 12.6841 16.9032 13.7205L14.9993 14.8197V10.7493C14.9993 10.2461 14.8329 9.74676 14.5306 9.34316L12.187 6.21843V4.88784C12.7325 4.69434 13.1244 4.17337 13.1244 3.56226V1.40615C13.1243 0.630796 12.4935 0 11.7182 0H3.28111C2.50575 0 1.8749 0.630796 1.8749 1.40615V3.56231C1.8749 4.17332 2.26683 4.69439 2.81236 4.88789V6.21848L0.468562 9.3434C0.166406 9.7468 0 10.2461 0 10.7493V19.8271C0 21.1194 1.05136 22.1707 2.34361 22.1707H9.8765C10.9275 23.9324 13.1937 24.522 14.9701 23.4963L20.6531 20.2152C22.4322 19.1878 23.0668 16.8974 22.0255 15.093ZM2.81236 1.40615C2.81236 1.14769 3.02264 0.937405 3.28106 0.937405H11.7181C11.9766 0.937405 12.1869 1.14769 12.1869 1.40615V3.56231C12.1869 3.82078 11.9766 4.03101 11.7181 4.03101H3.28111C3.02264 4.03101 2.8124 3.82073 2.8124 3.56231L2.81236 1.40615ZM1.21875 9.90557L3.65606 6.65591C3.7169 6.57482 3.74981 6.4761 3.74981 6.37467V4.96851H11.2494V5.90596H7.03091C6.77207 5.90596 6.56216 6.11587 6.56216 6.37471C6.56216 6.63356 6.77207 6.84346 7.03091 6.84346H11.4838L13.7803 9.90543C13.9304 10.1058 14.0237 10.3456 14.0518 10.5933H0.947436C0.975561 10.3455 1.0688 10.1058 1.21875 9.90557ZM2.34365 21.2333C1.5683 21.2333 0.937499 20.6025 0.937499 19.8271V19.3537H9.45351C9.30486 19.9615 9.30585 20.6106 9.47605 21.2333H2.34365V21.2333ZM9.82115 18.4209H0.937452V11.5306H14.0618V15.3609L11.2203 17.0016C10.6278 17.3439 10.1489 17.831 9.82115 18.4209ZM14.5015 22.6844C13.1563 23.4612 11.4374 23.0018 10.6601 21.6557C9.87913 20.2966 10.3524 18.5855 11.6891 17.8134L14.2333 16.3445L17.0457 21.2155L14.5015 22.6844ZM20.1843 19.4034L17.8576 20.7468L15.0452 15.8757L17.372 14.5324C18.718 13.7553 20.4363 14.2155 21.2136 15.5616C21.9943 16.9145 21.5195 18.6323 20.1843 19.4034Z" fill="#71BF44"/>
</svg>
