<svg width="20" height="20" viewBox="0 0 13 16" fill="none" xmlns="http://www.w3.org/2000/svg">
<path d="M6.09375 0C2.73375 0 0 2.73375 0 6.09375C0 7.42344 0.42 8.68688 1.21563 9.74688L5.71813 15.811C5.72938 15.8257 5.74656 15.8313 5.75906 15.8444C5.98406 16.0853 6.30875 16.0247 6.46906 15.811C7.76563 14.081 10.1422 10.85 11.0559 9.63125L11.0566 9.62969L11.0622 9.62219C11.7984 8.58781 12.1875 7.36781 12.1875 6.09375C12.1875 2.73375 9.45375 0 6.09375 0ZM6.09375 9.38125C4.28469 9.38125 2.80625 7.90281 2.80625 6.09375C2.80625 4.28469 4.28469 2.80625 6.09375 2.80625C7.90281 2.80625 9.38125 4.28469 9.38125 6.09375C9.38125 7.90281 7.90281 9.38125 6.09375 9.38125Z" fill="#71BF44"/>
</svg>
