<svg width="50" height="50" viewBox="0 0 20 24" fill="none" xmlns="http://www.w3.org/2000/svg">
<path d="M18.837 6.00971C18.8056 6.00236 18.595 5.95403 18.2039 5.8855C18.2111 4.99688 18.0477 4.16761 17.7158 3.41662C17.3099 2.4981 16.6716 1.74533 15.8185 1.17926C15.6566 1.07196 15.4385 1.11602 15.3311 1.27784C15.2238 1.43965 15.2679 1.65781 15.4297 1.76515C16.7595 2.64749 17.4857 4.06078 17.5009 5.77309C16.8163 5.67268 15.8678 5.5577 14.6518 5.46413C14.6485 5.44084 14.6457 5.41773 14.6421 5.39438C14.6399 5.3799 14.6367 5.3656 14.6327 5.35149C14.3871 4.49292 13.6696 4.00472 12.4999 3.90037C11.5895 3.81918 10.5646 3.97734 9.74112 4.10447C9.29712 4.173 8.74535 4.25817 8.60449 4.22269C8.57979 4.21219 8.55396 4.20459 8.52752 4.2C8.04681 4.11609 7.63647 3.80128 7.40176 3.33613C7.1597 2.8565 7.14929 2.30169 7.37392 1.85201C7.37575 1.84831 7.37753 1.84465 7.37921 1.8409C7.65995 1.22613 8.24767 0.916194 9.28498 0.835991C9.29103 0.835522 9.29702 0.834912 9.30303 0.834116C11.2675 0.579629 12.9339 0.695646 14.2559 1.17893C14.4384 1.24563 14.6402 1.15184 14.7068 0.969445C14.7735 0.787053 14.6797 0.585208 14.4973 0.518551C13.0703 -0.00317171 11.2955 -0.131985 9.2217 0.135626C8.40241 0.199939 7.25964 0.417628 6.74218 1.54325C6.51479 2.00173 6.45549 2.53142 6.56124 3.04157C6.29166 3.19377 5.95472 3.10035 5.35804 2.87994C4.76156 2.65958 4.08557 2.40983 3.39012 2.70407C3.21129 2.77972 3.12767 2.98602 3.20333 3.16485C3.27903 3.34368 3.48528 3.42731 3.66411 3.35165C3.84758 3.27402 4.04033 3.26113 4.24044 3.28579C4.14566 3.34213 4.05739 3.40551 3.97785 3.47545C3.70156 3.71831 3.54941 4.02398 3.54941 4.33622C3.54941 4.53038 3.70681 4.68778 3.90097 4.68778C4.09513 4.68778 4.25254 4.53038 4.25254 4.33622C4.25254 4.1917 4.37127 4.06579 4.44205 4.00359C4.7076 3.7702 5.14884 3.64598 5.54737 3.6906C5.78002 3.76289 6.02274 3.81782 6.26414 3.81782C6.44644 3.81782 6.62794 3.78646 6.80363 3.70785C7.13809 4.33172 7.7043 4.75852 8.37086 4.88611C8.63824 4.97982 9.05477 4.92188 9.84837 4.79939C11.6643 4.51917 13.4656 4.33983 13.9103 5.4122C12.6886 5.33466 11.2378 5.28151 9.55414 5.28151C3.44755 5.28151 0.398211 5.98004 0.271367 6.00981C0.0876154 6.05289 -0.0293385 6.2334 0.00642734 6.4187C0.6054 9.52232 2.05901 11.6706 3.76724 13.1575C2.77718 13.9087 2.20924 15.0515 2.26249 16.2384C2.31987 17.5181 3.08679 18.6288 4.31404 19.2094C4.3626 19.2324 4.41374 19.2432 4.46418 19.2432C4.59585 19.2432 4.72213 19.1689 4.78223 19.042C4.86524 18.8664 4.79029 18.6568 4.61479 18.5738C3.6125 18.0996 3.01114 17.2369 2.96496 16.2069C2.91982 15.1997 3.43845 14.2267 4.33072 13.6176C4.86712 14.029 5.42109 14.3818 5.97581 14.684C4.93692 15.1477 4.41041 15.665 4.40938 16.2265C4.4083 16.8288 4.99785 17.3305 6.21183 17.7603C6.22107 17.7636 6.23049 17.7665 6.23996 17.769C7.08531 17.9906 7.94805 18.1149 8.78243 18.2352C10.5176 18.4852 12.1565 18.7214 13.172 19.7992C13.1733 19.8006 13.1746 19.802 13.1759 19.8033C13.7388 20.3817 13.8212 21.2626 13.7001 21.8983C13.5168 21.8011 13.3184 21.7096 13.1071 21.6239C13.0943 21.2694 13.0444 20.869 12.8011 20.5066C12.4776 20.0247 11.8741 19.7103 10.956 19.5454C10.9558 19.5454 10.9557 19.5453 10.9555 19.5453C10.2021 19.3945 9.42167 19.3311 8.55321 19.2693L8.43489 19.2609C7.5834 19.1999 6.70294 19.1369 5.87756 18.9642C5.68739 18.9243 5.5012 19.0462 5.46145 19.2362C5.42165 19.4263 5.54348 19.6126 5.73352 19.6524C6.53649 19.8204 7.36707 19.8886 8.17666 19.9472V21.0232C5.8545 21.4462 4.42316 22.2206 3.92061 23.3269C3.87374 23.4301 3.8795 23.5496 3.93608 23.6478C3.99266 23.7461 4.09316 23.811 4.20594 23.8222C4.27893 23.8295 6.03422 24 9.554 24C13.0743 24 14.8295 23.8294 14.9026 23.8222C15.0154 23.811 15.1159 23.746 15.1725 23.6477C15.2291 23.5495 15.2348 23.4299 15.1878 23.3267C15.0142 22.9451 14.7254 22.5995 14.3286 22.2963C14.5909 21.3862 14.4631 20.1195 13.682 19.315C13.021 18.6144 12.1816 18.2263 11.2456 17.9733V15.5385C14.3282 14.3968 18.0452 11.8946 19.1019 6.41861C19.1376 6.23331 19.0207 6.05279 18.837 6.00971ZM12.3826 21.3691C12.0327 21.2623 11.653 21.1667 11.2456 21.0836V20.3286C12.0963 20.5564 12.3203 20.9191 12.3826 21.3691ZM9.55395 23.2969C7.21749 23.2969 5.64675 23.219 4.86154 23.1674C5.47973 22.4818 6.74935 21.9677 8.58522 21.6661C8.7551 21.6381 8.87979 21.4913 8.87979 21.3192V19.9982C9.48401 20.0439 10.0211 20.0947 10.5425 20.1838V21.3735C10.5425 21.5431 10.6635 21.6885 10.8303 21.7192C11.5166 21.8457 12.1249 22.0061 12.6388 22.196C13.0588 22.351 13.4216 22.5285 13.7171 22.7235C13.9271 22.8622 14.1037 23.0106 14.2457 23.1674C13.46 23.2191 11.8895 23.2969 9.55395 23.2969ZM5.11251 16.2278C5.11274 16.0867 5.29514 15.8825 5.60039 15.6813C5.89927 15.4843 6.31707 15.286 6.81413 15.1043C7.2774 15.3175 7.7349 15.498 8.17666 15.6509V17.4349C7.59254 17.3452 7.0037 17.2414 6.43266 17.0925C5.17575 16.6452 5.11242 16.2938 5.11251 16.2278ZM8.88274 17.5392C8.88176 17.5391 8.88077 17.5389 8.87979 17.5388V15.8341C9.10273 15.8713 9.32843 15.8901 9.55418 15.8901C9.88658 15.8901 10.219 15.8497 10.5425 15.769V17.8094C10.0076 17.7015 9.45003 17.621 8.88274 17.5392ZM15.5714 11.9726C14.2925 13.3066 12.6332 14.3278 10.6397 15.008C9.93969 15.2469 9.16868 15.2469 8.46874 15.008C6.47518 14.3278 4.81588 13.3066 3.53703 11.9726C2.16199 10.5384 1.23095 8.74034 0.766605 6.62364C2.07888 6.36944 5.17317 5.98454 9.55418 5.98454C13.9352 5.98454 17.0296 6.36944 18.3418 6.62359C17.8774 8.74034 16.9464 10.5384 15.5714 11.9726Z" fill="#71BF44"/>
<path d="M9.18107 1.50809C8.98691 1.50809 8.82951 1.66549 8.82951 1.85965C8.82951 2.05381 8.98691 2.21121 9.18107 2.21121H9.22795C9.4221 2.21121 9.57951 2.05381 9.57951 1.85965C9.57951 1.66549 9.4221 1.50809 9.22795 1.50809H9.18107Z" fill="#71BF44"/>
<path d="M8.52927 7.06057C8.21249 7.12305 7.98149 7.39347 7.96757 7.71809C7.95453 8.02109 7.94357 8.33506 7.93508 8.65114C7.62027 8.65967 7.30629 8.67064 7.00189 8.68372C6.67723 8.69769 6.40685 8.92869 6.34437 9.24543C6.21016 9.92554 6.21016 10.6152 6.34437 11.2953C6.40685 11.6121 6.67727 11.8431 7.00189 11.857C7.30629 11.8701 7.62022 11.8811 7.93494 11.8895C7.94352 12.2058 7.95449 12.5198 7.96752 12.8226C7.98144 13.1473 8.21244 13.4177 8.52923 13.4802C8.86926 13.5473 9.21173 13.5808 9.55415 13.5808C9.89663 13.5808 10.2391 13.5473 10.5791 13.4802C10.8958 13.4177 11.1268 13.1473 11.1408 12.8227C11.1538 12.5198 11.1648 12.2058 11.1733 11.8896C11.4881 11.8811 11.8021 11.8701 12.1065 11.857C12.4311 11.8431 12.7015 11.6121 12.764 11.2953C12.8982 10.6152 12.8982 9.92549 12.764 9.24543C12.7015 8.92864 12.4311 8.69764 12.1065 8.68367C11.8021 8.67059 11.4881 8.65962 11.1734 8.65123C11.1648 8.33501 11.1539 8.02104 11.1408 7.71804C11.1269 7.39338 10.8959 7.123 10.5791 7.06052C9.89902 6.92636 9.20934 6.92636 8.52927 7.06057ZM10.4384 7.74949C10.4513 8.04837 10.4621 8.35822 10.4706 8.67036C10.4807 9.04363 10.7811 9.34391 11.1543 9.35399C11.465 9.36243 11.7748 9.37325 12.0751 9.38614C12.1903 9.97288 12.1903 10.5678 12.0751 11.1546C11.7748 11.1675 11.465 11.1783 11.1543 11.1868C10.7811 11.1968 10.4807 11.4972 10.4706 11.8705C10.4621 12.1826 10.4513 12.4923 10.4383 12.7914C9.85163 12.9065 9.25664 12.9065 8.66995 12.7914C8.65706 12.4925 8.64627 12.1827 8.63779 11.8705C8.62766 11.4972 8.32729 11.1969 7.95407 11.1868C7.64342 11.1784 7.33372 11.1676 7.0332 11.1546C6.91803 10.5678 6.91803 9.97293 7.0332 9.38614C7.33353 9.37325 7.64333 9.36243 7.95402 9.35399C8.32724 9.34391 8.62762 9.04358 8.63774 8.67031C8.64623 8.35831 8.65701 8.04856 8.66999 7.74945C9.25673 7.63432 9.85167 7.63432 10.4384 7.74949Z" fill="#71BF44"/>
</svg>
