<svg width="20" height="20" viewBox="0 0 15 16" fill="none" xmlns="http://www.w3.org/2000/svg">
<path d="M10.0089 11.0769C9.85867 10.9275 9.65061 10.8455 9.42173 10.8455C9.18073 10.8455 8.94851 10.9394 8.78444 11.1034L7.74673 12.1414L7.46629 11.9858C6.84942 11.6438 6.00406 11.1747 5.11168 10.281C4.21565 9.386 3.7462 8.5388 3.40297 7.91936L3.24969 7.64675L4.28919 6.60738C4.63302 6.26235 4.64501 5.71328 4.31514 5.38294L2.39456 3.46266C2.24531 3.31336 2.03694 3.23096 1.80845 3.23096C1.56771 3.23096 1.33562 3.32531 1.17103 3.48956L0.699393 3.96389L0.655665 4.03678C0.47998 4.26198 0.336246 4.51501 0.228874 4.79083C0.128954 5.05354 0.0668518 5.30324 0.0379422 5.55374C-0.209567 7.61181 0.739267 9.50116 3.31402 12.0753C6.36545 15.1262 8.91541 15.3636 9.6244 15.3636C9.74607 15.3636 9.81936 15.3569 9.83966 15.3549C10.1017 15.3229 10.3522 15.2599 10.605 15.1622C10.8779 15.056 11.1304 14.9133 11.3552 14.7376L11.4622 14.653L11.9038 14.2199C12.2472 13.8764 12.2582 13.328 11.9285 12.9981L10.0089 11.0769Z" fill="#71BF44"/>
<path d="M7.97593 7.5252C7.55801 7.10753 7.03309 6.807 6.45948 6.65697L6.19562 6.58716L6.11998 6.84769C6.09158 6.94427 6.05813 7.03571 6.02019 7.11785L5.87718 7.42249L6.20482 7.50712C6.6383 7.61668 7.03331 7.83991 7.34694 8.15418C7.6467 8.4533 7.86582 8.82853 7.98051 9.23844L8.03581 9.43593L8.44829 9.45936C8.48996 9.46424 8.53164 9.46891 8.57151 9.4725L8.95933 9.50904L8.8693 9.12991C8.7248 8.52007 8.41621 7.96522 7.97593 7.5252Z" fill="#71BF44"/>
<path d="M9.32371 6.17674C8.54782 5.40072 7.55625 4.89436 6.4576 4.71276L6.07544 4.64856L6.13549 5.03059C6.15313 5.14388 6.16868 5.25665 6.18166 5.37057L6.20607 5.57157L6.40835 5.61157C7.28403 5.77333 8.0746 6.18676 8.69442 6.8062C9.40602 7.51806 9.84095 8.42616 9.95098 9.4338L9.97441 9.64704L10.2977 9.6936C10.3496 9.69771 10.4024 9.6972 10.4767 9.69771L10.8661 9.71107L10.8352 9.3932C10.714 8.15642 10.1909 7.0445 9.32371 6.17674Z" fill="#71BF44"/>
<path d="M10.7879 4.71274C9.51489 3.43995 7.81921 2.68179 6.01315 2.57853L5.66234 2.55664L5.72084 2.90214C5.7387 3.01465 5.76059 3.12974 5.78372 3.24961L5.82642 3.45922L6.03846 3.47232C7.59697 3.57905 9.06022 4.24299 10.1591 5.34164C11.2403 6.42294 11.901 7.86958 12.0193 9.41313L12.0397 9.68779L12.3141 9.67161C12.3791 9.66826 12.4432 9.66261 12.5368 9.65439L12.9295 9.62351L12.9078 9.34525C12.7736 7.59067 12.0209 5.94548 10.7879 4.71274Z" fill="#71BF44"/>
<path d="M14.9773 9.14836C14.7978 6.92103 13.8306 4.82506 12.2533 3.2475C10.5703 1.5644 8.33001 0.58854 5.94675 0.498899L5.67659 0.487549L5.65603 0.759128C5.65128 0.834978 5.64806 0.909972 5.64524 0.985308L5.62866 1.37959L5.90885 1.38961C8.07003 1.46962 10.0997 2.35314 11.6238 3.87721C13.0514 5.30483 13.9273 7.20306 14.0909 9.22138L14.1137 9.50478L14.3989 9.47703C14.4956 9.46675 14.5936 9.4593 14.6924 9.45159L15 9.4279L14.9773 9.14836Z" fill="#71BF44"/>
</svg>
