<svg width="20" height="20" viewBox="0 0 20 20" fill="none" xmlns="http://www.w3.org/2000/svg">
<path d="M16.3045 15.0391L13.6834 14.3828C13.3318 14.293 13.0545 14.0195 12.9685 13.668C12.8904 13.3633 12.9646 13.0391 13.1677 12.7969C13.7459 12.1094 14.1638 11.2734 14.367 10.3984C14.4216 10.1562 14.5701 9.9375 14.781 9.80469C15.0857 9.60938 15.3045 9.28516 15.3513 8.90625L15.5584 7.23828C15.6013 6.88672 15.4959 6.53125 15.2615 6.26562C15.2224 6.21875 15.1795 6.17578 15.1326 6.13672C14.9021 5.9375 14.7732 5.64453 14.7888 5.33984L14.8201 4.72656C14.8318 4.48438 14.9334 4.25391 15.1052 4.07812L15.1482 4.03516C15.617 3.53516 16.0076 2.67969 15.1951 1.4375C14.574 0.484375 13.5115 0 12.0427 0C11.4959 0 10.2732 0 9.09351 0.703125C8.95289 0.785156 8.79664 0.835938 8.63258 0.84375C5.31226 0.988281 4.85523 2.59766 4.85523 4.16797C4.85523 4.41016 4.8943 4.84766 4.93726 5.26562C4.97242 5.59375 4.8357 5.91406 4.5857 6.125C4.53883 6.16406 4.49195 6.21094 4.44898 6.25781C4.2107 6.52734 4.10133 6.88281 4.1443 7.24219L4.35133 8.91016C4.40211 9.3125 4.64039 9.65234 4.97633 9.84375C5.21461 9.98047 5.38648 10.207 5.45289 10.4727C5.65211 11.2891 6.04273 12.0703 6.57008 12.7227C6.76539 12.9648 6.83961 13.2852 6.76539 13.5859L6.74195 13.6719C6.65211 14.0234 6.37867 14.3008 6.02711 14.3867L3.3982 15.0391C1.78101 15.4414 0.542734 16.6484 0.0661711 18.1719C-0.218985 19.0781 0.45289 20 1.40211 20H18.3005C19.2498 20 19.9216 19.0781 19.6365 18.1719C19.156 16.6484 17.9177 15.4414 16.3045 15.0391Z" fill="#484A4C"/>
</svg>
