<svg width="50" height="50" viewBox="0 0 18 24" fill="none" xmlns="http://www.w3.org/2000/svg">
<path d="M17.6691 4.73549C17.5338 2.28338 15.5873 0.308846 13.1413 0.142528C10.3371 -0.0475094 7.4933 -0.0475094 4.68868 0.142528C2.24299 0.308846 0.296681 2.28338 0.161349 4.73544C0.0192663 7.3016 -0.0292979 9.89978 0.0169224 12.4578C0.0587362 14.7821 0.995704 16.9612 2.65527 18.5937C3.84589 19.7649 5.31163 20.5594 6.90327 20.9161V22.6959C6.90327 23.415 7.48848 24 8.20784 24H9.62258C10.3419 24 10.9272 23.415 10.9272 22.6959V20.9161C11.4138 20.8066 11.8902 20.6552 12.3546 20.4622C12.355 20.4918 12.3552 20.5213 12.3561 20.5512C12.388 21.475 12.9925 22.1738 13.8962 22.3316C14.0213 22.3535 14.1455 22.3641 14.2675 22.3641C15.0476 22.364 15.7383 21.93 16.0186 21.2288C16.0906 21.0485 16.0029 20.8439 15.8226 20.7718C15.6422 20.6997 15.4377 20.7875 15.3657 20.9678C15.2025 21.376 14.7111 21.7601 14.0171 21.6389C13.8 21.601 13.0893 21.4088 13.0589 20.528C13.0576 20.4871 13.0568 20.4458 13.0568 20.4045C13.0568 19.3805 13.4907 18.435 14.2562 17.7712C14.8525 18.2894 15.2545 18.9893 15.3979 19.7683C15.4331 19.9592 15.6163 20.0855 15.8073 20.0504C15.9983 20.0153 16.1246 19.8319 16.0894 19.641C15.9952 19.1292 15.8077 18.6461 15.5406 18.2114C16.9695 16.6287 17.7746 14.5969 17.8134 12.4578C17.8598 9.89978 17.8112 7.30156 17.6691 4.73549ZM10.224 22.6959C10.224 23.0273 9.95423 23.2969 9.62258 23.2969H8.20784C7.87624 23.2969 7.60642 23.0273 7.60642 22.6959V21.0435C8.00993 21.1001 8.41977 21.1297 8.83388 21.1302H8.99692C9.41144 21.1298 9.82077 21.1008 10.224 21.0443V22.6959ZM17.1105 12.4451C17.0756 14.3664 16.3693 16.1938 15.113 17.6345C14.9202 17.4161 14.7045 17.2158 14.4661 17.0385C14.3416 16.9458 14.171 16.9458 14.0464 17.0385C13.187 17.6779 12.6085 18.626 12.4203 19.6649C11.3449 20.1691 10.194 20.4258 8.99649 20.4271H8.8343C6.69523 20.4243 4.67593 19.5951 3.14837 18.0924C1.62085 16.5898 0.758415 14.5842 0.71993 12.4452C0.673991 9.90419 0.722226 7.32335 0.863418 4.77426C0.979203 2.67597 2.64421 0.986399 4.73626 0.844129C7.50929 0.656248 10.3212 0.656248 13.0936 0.844129C15.186 0.986399 16.8512 2.67602 16.967 4.77435C17.1082 7.32335 17.1564 9.90419 17.1105 12.4451Z" fill="#71BF44"/>
<path d="M12.4802 13.345H5.35086C4.59845 13.345 3.93547 13.7687 3.62065 14.4507C3.30386 15.1371 3.41242 15.9217 3.90406 16.4985C4.02838 16.6444 4.16123 16.787 4.29886 16.9224C5.51821 18.1219 7.12968 18.7839 8.83697 18.7864H8.99406C10.7008 18.7839 12.3123 18.1219 13.5317 16.9224C13.6785 16.7779 13.8198 16.6253 13.9516 16.4688C14.4291 15.9019 14.5305 15.13 14.2162 14.4545C13.8978 13.7701 13.2326 13.345 12.4802 13.345ZM4.43916 16.0424C4.12757 15.6768 4.05852 15.1799 4.25906 14.7455C4.46058 14.3088 4.86874 14.0481 5.35086 14.0481H8.56785V18.0765C7.14689 18.0092 5.8148 17.4274 4.79195 16.4212C4.66895 16.3002 4.55026 16.1727 4.43916 16.0424ZM13.4138 16.0159C13.296 16.1557 13.1697 16.2921 13.0385 16.4211C12.0175 17.4255 10.6885 18.0071 9.271 18.0762V14.0481H12.4801C12.9559 14.0481 13.3768 14.3175 13.5785 14.7511C13.7792 15.1823 13.7176 15.6551 13.4138 16.0159Z" fill="#71BF44"/>
<path d="M12.9826 2.4812C11.6301 2.38951 10.2616 2.34305 8.91526 2.34305C8.08737 2.34305 7.24608 2.36063 6.41472 2.39537C6.2207 2.40348 6.06999 2.56731 6.0781 2.76133C6.08621 2.95535 6.24995 3.10601 6.44407 3.09795C7.26567 3.06364 8.09712 3.0462 8.91526 3.0462C10.2458 3.0462 11.5983 3.09214 12.935 3.18275C13.8487 3.24482 14.576 3.98481 14.6267 4.9042C14.7201 6.58421 14.772 8.30729 14.7809 10.0256C14.7856 10.9096 14.1165 11.671 13.2587 11.759C13.2357 11.761 13.2127 11.7631 13.1909 11.7646C11.7767 11.8608 10.3381 11.9096 8.91526 11.9096C7.49237 11.9096 6.05382 11.8608 4.64082 11.7647C4.61851 11.7631 4.59624 11.7612 4.57065 11.7589C3.71285 11.6697 3.04491 10.9088 3.0496 10.0256C3.05851 8.31024 3.11021 6.58711 3.20326 4.9042C3.25436 3.98486 3.98183 3.24477 4.89527 3.18275C4.95007 3.17905 5.00482 3.17539 5.05962 3.17216C5.25345 3.16077 5.40139 2.9944 5.39 2.80057C5.37866 2.60678 5.21267 2.45907 5.01841 2.47018C4.96164 2.47351 4.90488 2.47735 4.84783 2.48115C3.58076 2.56722 2.57193 3.59208 2.50114 4.86524C2.40744 6.55992 2.35536 8.29487 2.3464 10.0218C2.34322 10.6235 2.55927 11.2036 2.95481 11.6553C3.35481 12.112 3.90397 12.3973 4.50108 12.4585C4.50268 12.4587 4.50783 12.4591 4.50938 12.4593C4.53647 12.4617 4.56352 12.4641 4.59184 12.4662C6.02185 12.5634 7.47648 12.6128 8.91521 12.6128C10.3539 12.6128 11.8086 12.5634 13.2398 12.4661C13.2669 12.4641 13.2939 12.4618 13.3246 12.4591C13.3261 12.4589 13.3277 12.4588 13.3293 12.4586C13.9265 12.3974 14.4757 12.1121 14.8756 11.6553C15.2711 11.2036 15.4872 10.6236 15.484 10.0219C15.475 8.29192 15.4228 6.55697 15.3288 4.86534C15.2586 3.59226 14.2499 2.56726 12.9826 2.4812Z" fill="#71BF44"/>
<path d="M4.95316 4.74683C4.759 4.74683 4.60159 4.90424 4.60159 5.09841V6.83992C4.60159 7.03408 4.759 7.19149 4.95316 7.19149C5.14732 7.19149 5.30473 7.03408 5.30473 6.83992V5.09841C5.30473 4.90424 5.14732 4.74683 4.95316 4.74683Z" fill="#71BF44"/>
<path d="M7.20492 4.06623H5.46341C5.26925 4.06623 5.11184 4.22364 5.11184 4.41781C5.11184 4.61197 5.26925 4.76938 5.46341 4.76938H7.20492C7.39908 4.76938 7.55649 4.61197 7.55649 4.41781C7.55649 4.22364 7.39908 4.06623 7.20492 4.06623Z" fill="#71BF44"/>
<path d="M8.15276 9.88816V8.14665C8.15276 7.95248 7.99535 7.79507 7.80119 7.79507C7.60703 7.79507 7.44962 7.95248 7.44962 8.14665V9.88816C7.44962 10.0823 7.60703 10.2397 7.80119 10.2397C7.99535 10.2397 8.15276 10.0823 8.15276 9.88816Z" fill="#71BF44"/>
<path d="M5.11184 7.46605C5.11184 7.66021 5.26925 7.81762 5.46341 7.81762H7.20492C7.39908 7.81762 7.55649 7.66021 7.55649 7.46605C7.55649 7.27188 7.39908 7.11447 7.20492 7.11447H5.46341C5.26925 7.11447 5.11184 7.27188 5.11184 7.46605Z" fill="#71BF44"/>
<path d="M5.46341 10.8659H7.20492C7.39908 10.8659 7.55649 10.7085 7.55649 10.5143C7.55649 10.3202 7.39908 10.1628 7.20492 10.1628H5.46341C5.26925 10.1628 5.11184 10.3202 5.11184 10.5143C5.11184 10.7085 5.26925 10.8659 5.46341 10.8659Z" fill="#71BF44"/>
<path d="M9.55868 5.09841V6.83992C9.55868 7.03408 9.71609 7.19149 9.91026 7.19149C10.1044 7.19149 10.2618 7.03408 10.2618 6.83992V5.09841C10.2618 4.90424 10.1044 4.74683 9.91026 4.74683C9.71609 4.74683 9.55868 4.90424 9.55868 5.09841Z" fill="#71BF44"/>
<path d="M12.162 4.06623H10.4205C10.2263 4.06623 10.0689 4.22364 10.0689 4.41781C10.0689 4.61197 10.2263 4.76938 10.4205 4.76938H12.162C12.3562 4.76938 12.5136 4.61197 12.5136 4.41781C12.5136 4.22364 12.3562 4.06623 12.162 4.06623Z" fill="#71BF44"/>
<path d="M13.1099 9.88816V8.14665C13.1099 7.95248 12.9524 7.79507 12.7583 7.79507C12.5641 7.79507 12.4067 7.95248 12.4067 8.14665V9.88816C12.4067 10.0823 12.5641 10.2397 12.7583 10.2397C12.9524 10.2397 13.1099 10.0823 13.1099 9.88816Z" fill="#71BF44"/>
<path d="M10.4205 7.81762H12.162C12.3562 7.81762 12.5136 7.66021 12.5136 7.46605C12.5136 7.27188 12.3562 7.11447 12.162 7.11447H10.4205C10.2263 7.11447 10.0689 7.27188 10.0689 7.46605C10.0689 7.66021 10.2263 7.81762 10.4205 7.81762Z" fill="#71BF44"/>
<path d="M10.4205 10.8659H12.162C12.3562 10.8659 12.5136 10.7085 12.5136 10.5143C12.5136 10.3202 12.3562 10.1628 12.162 10.1628H10.4205C10.2263 10.1628 10.0689 10.3202 10.0689 10.5143C10.0689 10.7085 10.2263 10.8659 10.4205 10.8659Z" fill="#71BF44"/>
<path d="M9.17119 10.8659C9.36535 10.8659 9.52275 10.7085 9.52275 10.5143C9.52275 10.3202 9.36535 10.1628 9.17119 10.1628H9.14775C8.9536 10.1628 8.79619 10.3202 8.79619 10.5143C8.79619 10.7085 8.9536 10.8659 9.14775 10.8659H9.17119Z" fill="#71BF44"/>
<path d="M10.7195 14.6835C10.5822 14.5462 10.3596 14.5462 10.2223 14.6835C10.085 14.8208 10.085 15.0434 10.2223 15.1807L10.8934 15.8518L10.2223 16.523C10.085 16.6603 10.085 16.8829 10.2223 17.0201C10.2909 17.0888 10.3809 17.1231 10.4709 17.1231C10.5609 17.1231 10.6509 17.0888 10.7195 17.0201L11.6393 16.1004C11.7766 15.9631 11.7766 15.7405 11.6393 15.6032L10.7195 14.6835Z" fill="#71BF44"/>
<path d="M6.94513 15.8519L7.61626 15.1807C7.75356 15.0434 7.75356 14.8208 7.61626 14.6836C7.47896 14.5463 7.25634 14.5463 7.11909 14.6836L6.19933 15.6033C6.06202 15.7406 6.06202 15.9633 6.19933 16.1005L7.11909 17.0203C7.18772 17.0889 7.27772 17.1233 7.36767 17.1233C7.45763 17.1233 7.54763 17.089 7.61626 17.0203C7.75356 16.883 7.75356 16.6604 7.61626 16.5231L6.94513 15.8519Z" fill="#71BF44"/>
</svg>
